# xmcd
# 
# Track frame offsets:
#     150
#     19176
#     40728
#     64758
#     83739
#     104877
#     128095
#     149837
#     167206
#     187490
#     208191
#     225707
# 
# Disc length: 3306
# 
# Revision: 0
# Processed by: cddbd v1.5.2PL0 Copyright (c) Steve Scherf et al.
# Submitted via: fre:ac v1.0.31
# 
DISCID=ba0ce80c
DTITLE=Various Artist - Blues Mix Vol. 13: Grown Folks Soul
DYEAR=2014
DGENRE=Blues
TTITLE0=O. B. Buchana - Turn It Up
TTITLE1=O. B. Buchana - That's My Song
TTITLE2=John Cummings - Bobby's Gone
TTITLE3=Sheba Potts-Wright - Stay With Your Wife
TTITLE4=Carl Sims - If You Can't Help Me (Remix)
TTITLE5=Donnie Ray - Same Woman
TTITLE6=Ms. Jody - Energizer Bunny
TTITLE7=John Cummings - Mr. Do Right
TTITLE8=Donnie Ray - That Black Magic
TTITLE9=Ms. Jody - Weekend Lovin'
TTITLE10=Sonny Mack - What Goes Around Comes Around
TTITLE11=Sheba Potts-Wright - Private Fishing Hole
EXTD=
EXTT0=
EXTT1=
EXTT2=
EXTT3=
EXTT4=
EXTT5=
EXTT6=
EXTT7=
EXTT8=
EXTT9=
EXTT10=
EXTT11=
PLAYORDER=
